<?xml version="1.0" encoding="utf-8"?>
<!-- Generator: Adobe Illustrator 25.2.1, SVG Export Plug-In . SVG Version: 6.00 Build 0)  -->
<svg version="1.1" id="Layer_1" xmlns="http://www.w3.org/2000/svg" xmlns:xlink="http://www.w3.org/1999/xlink" x="0px" y="0px"
	 viewBox="0 0 19 15.3" style="enable-background:new 0 0 19 15.3;" xml:space="preserve">
<style type="text/css">
	.st0{fill:#FFFFFF;stroke:#FFFFFF;stroke-width:0.5;stroke-miterlimit:10;}
</style>
<g id="tac5TO.tif">
	<g>
		<path class="st0" d="M0.2,7.6L0.2,7.6C1,6.8,1.6,6.2,2.3,5.5l0.1-0.1C3.2,6.2,4,6.8,4.8,7.7c-0.6,0-1.3,0-1.9,0
			c-0.1,2.1,1.1,4.8,3.9,6c1.6,0.7,3.1,0.7,4.7,0.2c1.6-0.6,2.8-1.6,3.6-3.1c0,0,0.1,0,0.1,0.1c0.2,0.1,0.4,0.2,0.6,0.3
			c-1.1,2.2-3.8,4.2-7.3,3.9c-3.6-0.4-6.6-3.4-6.6-7.3C1.4,7.7,0.9,7.7,0.2,7.6C0.2,7.7,0.2,7.6,0.2,7.6z"/>
		<path class="st0" d="M9.9,0.2c0.3,0,0.6,0.1,0.9,0.1c2.4,0.5,4.2,1.9,5.3,4.1c0.5,1,0.7,2,0.7,3.1c0.6,0,1.1,0,1.6,0
			c-0.7,0.7-1.5,1.5-2.2,2.2c-0.7-0.7-1.5-1.5-2.2-2.2c0.6,0,1.3,0,1.9,0c0.1-2.2-1.3-4.9-4.1-6.1c-2.8-1-6.5,0-8.2,3.1
			C3.3,4.4,3,4.2,2.8,4.2c0.3-0.5,0.6-1,1-1.4c1.2-1.4,2.8-2.2,4.7-2.5c0.1,0,0.2,0,0.3,0C9.1,0.2,9.4,0.2,9.9,0.2z"/>
	</g>
</g>
</svg>
