<?xml version="1.0" encoding="utf-8"?>
<!-- Generator: Adobe Illustrator 25.2.1, SVG Export Plug-In . SVG Version: 6.00 Build 0)  -->
<svg version="1.1" id="Layer_1" xmlns="http://www.w3.org/2000/svg" xmlns:xlink="http://www.w3.org/1999/xlink" x="0px" y="0px"
	 viewBox="0 0 116.4 116.2" style="enable-background:new 0 0 116.4 116.2;" xml:space="preserve">
<style type="text/css">
	.st0{fill:none;}
	.st1{fill:#ADADAD;}
	.st2{fill:#C6C6C6;}
	.st3{fill:#269B74;}
</style>
<path class="st0" d="M108.1,16.6c-4.2,0-8.3,0-12.5,0c0,0.6,0,1,0,1.5c0,5.8,0.2,11.7-0.1,17.5c-0.2,5-0.6,10.1-1.3,15.1
	c-0.5,3.5-1.7,6.9-2.6,10.7c2.1-1.1,4.1-2,6-3.2c4.7-2.9,8-6.9,9.4-12.3c0.7-2.7,1-5.5,1.1-8.3c0.2-6.6,0.1-13.3,0-19.9
	C108.1,17.4,108.1,17,108.1,16.6z"/>
<path class="st0" d="M59.2,50.2c3.9,2.2,7.8,4.3,11.7,6.5c0.4,0.2,0.8,0.4,1.4,0.7c-0.1-0.6-0.1-1-0.1-1.4
	c-0.8-4.7-1.5-9.4-2.3-14.1c-0.1-0.8,0-1.3,0.6-1.8c3.2-3.3,6.4-6.6,9.6-9.8c0.3-0.3,0.6-0.7,1-1.2c-5-0.8-9.8-1.5-14.5-2.2
	c-0.9-0.1-1.4-0.4-1.7-1.2c-1.9-4.2-3.9-8.4-5.9-12.6c-0.2-0.4-0.4-0.8-0.7-1.4c-0.2,0.5-0.4,0.9-0.6,1.2V50
	C58.1,49.8,58.6,49.8,59.2,50.2z"/>
<path class="st1" d="M116.4,9.4c0-0.4,0-0.7-0.1-1.3c-6.9,0-13.8,0-20.8,0c0-2.8,0-5.5,0-8.2c-12.7,0-25.3,0-38,0v12.9
	c0.2-0.3,0.4-0.7,0.6-1.2c0.3,0.6,0.5,0.9,0.7,1.4c2,4.2,3.9,8.4,5.9,12.6c0.4,0.8,0.9,1.1,1.7,1.2c4.7,0.7,9.5,1.4,14.5,2.2
	c-0.4,0.5-0.7,0.8-1,1.2c-3.2,3.3-6.4,6.6-9.6,9.8c-0.5,0.5-0.7,1-0.6,1.8c0.8,4.7,1.6,9.4,2.3,14.1c0.1,0.4,0.1,0.8,0.1,1.4
	c-0.6-0.3-1-0.5-1.4-0.7c-3.9-2.2-7.8-4.3-11.7-6.5c-0.6-0.3-1.1-0.4-1.7-0.2v66.2c9.9,0,19.8,0,29.7,0c-0.2-2.3-1.1-4.1-2.3-5.8
	c-4.6-6.4-11.1-10.1-18.5-12.3c0-4,0-8,0-12c0-0.3,0.4-0.8,0.8-0.9c7.3-2.1,12.9-6.5,17.4-12.5c0.4-0.5,1.1-0.9,1.8-1.1
	c9.1-1.9,16.9-5.9,22.6-13.4c5.2-6.7,7.2-14.5,7.3-22.8C116.4,26.8,116.4,18.1,116.4,9.4z M108.1,37.7c-0.1,2.8-0.4,5.6-1.1,8.3
	c-1.4,5.4-4.7,9.4-9.4,12.3c-1.9,1.1-3.9,2.1-6,3.2c1-3.8,2.1-7.2,2.6-10.7c0.7-5,1.1-10.1,1.3-15.1c0.2-5.8,0.1-11.7,0.1-17.5
	c0-0.5,0-0.9,0-1.5c4.2,0,8.3,0,12.5,0c0,0.4,0.1,0.8,0.1,1.2C108.1,24.5,108.2,31.1,108.1,37.7z"/>
<path class="st2" d="M57.2,50.2c-3.9,2.2-7.9,4.4-11.8,6.5c-0.4,0.2-0.8,0.4-1.3,0.7c0.3-2.1,0.6-4,0.9-5.9c0.5-3.3,1.1-6.6,1.6-9.9
	c0.1-0.4-0.2-1.1-0.5-1.4c-3.2-3.3-6.4-6.6-9.6-9.9c-0.3-0.3-0.6-0.7-1.1-1.2c2.7-0.4,5.2-0.8,7.6-1.2c2.4-0.4,4.8-0.7,7.2-1.1
	c0.5-0.1,1.1-0.6,1.4-1.1c2-4.1,3.9-8.3,5.9-12.4c0.1-0.1,0.1-0.2,0.2-0.4V0C45.3,0,33,0,20.7,0c0,2.8,0,5.4,0,8.2
	c-6.9,0-13.8,0-20.7,0c0,9.9-0.1,19.6,0,29.3c0.1,5.3,1.3,10.4,3.7,15.1c5.4,10.8,14.6,16.6,26.1,19c0.6,0.1,1.3,0.5,1.7,1
	c4.5,6.1,10.1,10.5,17.5,12.6c0.3,0.1,0.7,0.5,0.7,0.8c0,4,0,8.1,0,11.7c-3.4,1.7-6.8,3-9.9,4.8c-4.1,2.4-7.6,5.6-9.8,9.9
	c-0.6,1.1-0.9,2.5-1.3,3.8c9.6,0,19.2,0,28.7,0V50C57.5,50.1,57.3,50.1,57.2,50.2z M15.3,55.7c-4.6-4.1-6.7-9.5-6.9-15.5
	c-0.3-7.8-0.1-15.7-0.1-23.6c4.1,0,8.2,0,12.4,0c0,2.5,0,4.9,0,7.4c0.1,5.9,0,11.8,0.2,17.7c0.2,6.3,1.4,12.5,3.6,18.5
	c0.1,0.3,0.2,0.6,0.4,1.2C21.3,59.9,18.1,58.2,15.3,55.7z"/>
<path class="st3" d="M116.4,9.4c0-0.4,0-0.7-0.1-1.3c-6.9,0-13.8,0-20.8,0c0-2.8,0-5.5,0-8.2c-12.7,0-25.3,0-38,0
	C45.3,0,33,0,20.7,0c0,2.8,0,5.4,0,8.2c-6.9,0-13.8,0-20.7,0c0,9.9-0.1,19.6,0,29.3c0.1,5.3,1.3,10.4,3.7,15.1
	c5.4,10.8,14.6,16.6,26.1,19c0.6,0.1,1.3,0.5,1.7,1c4.5,6.1,10.1,10.5,17.5,12.6c0.3,0.1,0.7,0.5,0.7,0.8c0,4,0,8.1,0,11.7
	c-3.4,1.7-6.8,3-9.9,4.8c-4.1,2.4-7.6,5.6-9.8,9.9c-0.6,1.1-0.9,2.5-1.3,3.8c9.6,0,19.2,0,28.7,0c9.9,0,19.8,0,29.7,0
	c-0.2-2.3-1.1-4.1-2.3-5.8c-4.6-6.4-11.1-10.1-18.5-12.3c0-4,0-8,0-12c0-0.3,0.4-0.8,0.8-0.9c7.3-2.1,12.9-6.5,17.4-12.5
	c0.4-0.5,1.1-0.9,1.8-1.1c9.1-1.9,16.9-5.9,22.6-13.4c5.2-6.7,7.2-14.5,7.3-22.8C116.4,26.8,116.4,18.1,116.4,9.4z M15.3,55.7
	c-4.6-4.1-6.7-9.5-6.9-15.5c-0.3-7.8-0.1-15.7-0.1-23.6c4.1,0,8.2,0,12.4,0c0,2.5,0,4.9,0,7.4c0.1,5.9,0,11.8,0.2,17.7
	c0.2,6.3,1.4,12.5,3.6,18.5c0.1,0.3,0.2,0.6,0.4,1.2C21.3,59.9,18.1,58.2,15.3,55.7z M80,30.3c-3.2,3.3-6.4,6.6-9.6,9.8
	c-0.5,0.5-0.7,1-0.6,1.8c0.8,4.7,1.6,9.4,2.3,14.1c0.1,0.4,0.1,0.8,0.1,1.4c-0.6-0.3-1-0.5-1.4-0.7c-3.9-2.2-7.8-4.3-11.7-6.5
	c-0.6-0.3-1.1-0.4-1.7-0.2c-0.1,0-0.2,0.1-0.4,0.2c-3.9,2.2-7.9,4.4-11.8,6.5c-0.4,0.2-0.8,0.4-1.3,0.7c0.3-2.1,0.6-4,0.9-5.9
	c0.5-3.3,1.1-6.6,1.6-9.9c0.1-0.4-0.2-1.1-0.5-1.4c-3.2-3.3-6.4-6.6-9.6-9.9c-0.3-0.3-0.6-0.7-1.1-1.2c2.7-0.4,5.2-0.8,7.6-1.2
	c2.4-0.4,4.8-0.7,7.2-1.1c0.5-0.1,1.1-0.6,1.4-1.1c2-4.1,3.9-8.3,5.9-12.4c0.1-0.1,0.1-0.2,0.2-0.4c0.2-0.3,0.4-0.7,0.6-1.2
	c0.3,0.6,0.5,0.9,0.7,1.4c2,4.2,3.9,8.4,5.9,12.6c0.4,0.8,0.9,1.1,1.7,1.2c4.7,0.7,9.5,1.4,14.5,2.2C80.6,29.6,80.3,29.9,80,30.3z
	 M108.1,37.7c-0.1,2.8-0.4,5.6-1.1,8.3c-1.4,5.4-4.7,9.4-9.4,12.3c-1.9,1.1-3.9,2.1-6,3.2c1-3.8,2.1-7.2,2.6-10.7
	c0.7-5,1.1-10.1,1.3-15.1c0.2-5.8,0.1-11.7,0.1-17.5c0-0.5,0-0.9,0-1.5c4.2,0,8.3,0,12.5,0c0,0.4,0.1,0.8,0.1,1.2
	C108.1,24.5,108.2,31.1,108.1,37.7z"/>
</svg>
