<?xml version="1.0" encoding="utf-8"?>
<!-- Generator: Adobe Illustrator 25.2.1, SVG Export Plug-In . SVG Version: 6.00 Build 0)  -->
<svg version="1.1" id="Layer_1" xmlns="http://www.w3.org/2000/svg" xmlns:xlink="http://www.w3.org/1999/xlink" x="0px" y="0px"
	 viewBox="0 0 200 200" style="enable-background:new 0 0 200 200;" xml:space="preserve">
<style type="text/css">
	.st0{fill:#FFFFFF;}
	.st1{fill:#333333;}
</style>
<circle class="st0" cx="100.7" cy="100.4" r="14.5"/>
<circle class="st1" cx="265.6" cy="45.5" r="14.5"/>
<circle class="st1" cx="374.8" cy="154.6" r="14.5"/>
<circle class="st1" cx="485.6" cy="45.5" r="14.5"/>
<circle class="st1" cx="594.8" cy="154.6" r="14.5"/>
<circle class="st1" cx="540.7" cy="100.4" r="14.5"/>
<circle class="st1" cx="705.6" cy="45.5" r="14.5"/>
<circle class="st1" cx="814.8" cy="154.6" r="14.5"/>
<circle class="st1" cx="814.8" cy="45.5" r="14.5"/>
<circle class="st1" cx="705.6" cy="154.6" r="14.5"/>
<circle class="st1" cx="925.6" cy="45.5" r="14.5"/>
<circle class="st1" cx="1034.8" cy="154.6" r="14.5"/>
<circle class="st1" cx="1034.8" cy="45.5" r="14.5"/>
<circle class="st1" cx="980.7" cy="100.4" r="14.5"/>
<circle class="st1" cx="925.6" cy="154.6" r="14.5"/>
<circle class="st1" cx="1145.6" cy="45.5" r="14.5"/>
<circle class="st1" cx="1254.8" cy="154.6" r="14.5"/>
<circle class="st1" cx="1254.8" cy="45.5" r="14.5"/>
<circle class="st1" cx="1145.6" cy="100.4" r="14.5"/>
<circle class="st1" cx="1254.9" cy="100.4" r="14.5"/>
<circle class="st1" cx="1145.6" cy="154.6" r="14.5"/>
</svg>
